<?xml version="1.0" encoding="utf-8"?>
<!-- Generator: Adobe Illustrator 26.0.3, SVG Export Plug-In . SVG Version: 6.00 Build 0)  -->
<svg version="1.1" id="Layer_1" xmlns="http://www.w3.org/2000/svg" xmlns:xlink="http://www.w3.org/1999/xlink" x="0px" y="0px"
	 viewBox="300 200 900 800" style="enable-background:new 300 200 900 800;" xml:space="preserve">
<style type="text/css">
	.st0{fill:#00AA77;}
	.st1{fill:#003033;}
	.st2{fill:#FB151E;}
	.st3{fill:#FFFFFF;}
</style>
<g>
	<g>
		<g>
			<path class="st0" d="M1098.4,470.9c-0.9-6.1-3.1-11.2-5.7-15.4c-9-14.7-26.4-17.7-41.9-5.1c-13.2,10.7-36,32-57.9,53.2
				c29.1-28.9,61.4-61.2,77.2-78.3c11.7-12.6,14.7-21.3,14.3-35.6c-0.3-7.5-0.9-10.3-3.9-15c-7.2-11.4-26.8-21-44-9.2
				c-22.1,15.2-66,58.7-93.5,86.8c28.7-29.8,75.5-78.1,98.4-101.1c33.9-34.1,26.8-58.4,16.3-71.8c-23.7-30.2-52-11.5-61.8-1.2
				C925.4,352.4,712.4,559.6,692,579.7c-0.9,0.9-2.3,0.9-3.2,0c-9.5-9.3-58.4-57.5-75.4-75.1c-21.2-22-50.5-36.4-83.5-36.4
				c-63,0-114,51-114,114c0,31.9,13.2,60.6,34.2,81.4c49.5,49,179.1,179,224.7,224.7c8.9,8.9,23.3,8.9,32.3,0
				c0,0,295.3-274.3,378.9-379C1094.3,498.7,1100,482.7,1098.4,470.9z M1080.3,504.7C997.9,607.8,705,880.2,702.1,883
				c-0.1,0-0.1,0.1-0.2,0.2c-3,3-6.9,4.6-11,4.6l0,0c-4.2,0-8-1.6-11-4.6c-51.4-51.6-176.2-176.7-224.7-224.7
				c-20.7-20.4-32-47.5-32-76.2c0-58.9,47.9-106.8,106.7-106.8c29.2,0,57,12.1,78.3,34.2c17,17.6,65.9,65.8,75.5,75.3
				c3.7,3.6,9.7,3.6,13.4,0c3.6-3.6,13.3-13,27.1-26.5c65.5-64,218.9-214,277-275.2c6-6.3,17-13.4,28.2-12.9
				c8.2,0.4,15.8,5,22.6,13.7c13.3,16.9,7.8,38.4-15.8,62.2c-23.5,23.7-72.5,74.3-101,103.8c-12.3,12.6-20.8,21.5-21.9,22.7
				c-2.7,2.9-2.6,7.4,0.3,10.2c2.9,2.7,7.5,2.6,10.2-0.2c0.3-0.3,7.9-8.1,19.3-20c26.8-27.5,74.6-75.3,97.5-91.1
				c5.4-3.7,11.4-5,17.6-3.7c6.6,1.4,12.9,5.6,16.2,10.7c2.1,3.3,2.6,4.7,2.8,11.4c0.4,12.8-2.4,19.7-12.3,30.5
				c-15.7,17-48.1,49.5-77.4,78.4c-29,27.9-56.2,55.3-58.2,57.2c-2.8,2.8-2.8,7.4,0,10.2s7.3,2.9,10.2,0.1
				c0.5-0.5,27-26.3,57.2-56.2c22.3-21.5,45.6-43.4,58.9-54.2c6-4.9,12.6-7,18.4-6c5.2,0.9,9.6,4.1,12.8,9.3
				c2.5,4.2,4.1,8.3,4.7,12.6C1092.5,481.2,1087.8,495.3,1080.3,504.7z"/>
			<path class="st1" d="M1111.9,469c-1-7.2-3.5-14-7.6-20.6c-5.2-8.4-12.5-14.4-21-17.4c11.3-13.3,15.2-24.7,14.7-41.7
				c-0.3-8.8-1.2-14.3-6-21.8c-6.2-9.8-17.4-17.4-29.3-19.9c28.2-36.4,16.1-63.2,5.7-76.5c-10.7-13.6-23.5-20.9-38.1-21.6
				c-0.8,0-1.5-0.1-2.3-0.1c-22.4,0-38.9,16.2-42,19.5c-57.8,60.9-211,210.6-276.4,274.6c-7.9,7.7-14.4,14.1-19.2,18.8
				c-18.4-18.2-53.4-52.7-67.2-67.1c-25.3-26.2-58.4-40.6-93.3-40.6c-70.4,0-127.6,57.2-127.6,127.6c0,34.3,13.6,66.6,38.2,91.1
				c48.6,48.1,173.3,173.1,224.6,224.6c6.9,6.9,16,10.7,25.8,10.7l0,0c9.6,0,18.7-3.8,25.5-10.4c12.1-11.3,297.6-277,380.2-380.4
				C1107.8,503.7,1114,484.1,1111.9,469z M529.8,475.4c29.2,0,57,12.1,78.3,34.2c17,17.6,65.9,65.8,75.5,75.3
				c3.7,3.6,9.7,3.6,13.4,0c3.6-3.6,13.3-13,27.1-26.5c65.5-64,218.9-214,277-275.2c6-6.3,17-13.4,28.2-12.9
				c8.2,0.4,15.8,5,22.6,13.7c13.3,16.9,7.8,38.4-15.8,62.2c-23.5,23.7-72.5,74.3-101,103.8c-12.3,12.6-20.8,21.5-21.9,22.7
				c-2.7,2.9-2.6,7.4,0.3,10.2c2.9,2.7,7.5,2.6,10.2-0.2c0.3-0.3,7.9-8.1,19.3-20c26.8-27.5,74.6-75.3,97.5-91.1
				c5.4-3.7,11.4-5,17.6-3.7c6.6,1.4,12.9,5.6,16.2,10.7c2.1,3.3,2.6,4.7,2.8,11.4c0.4,12.8-2.4,19.7-12.3,30.5
				c-15.7,17-48.1,49.5-77.4,78.4c-29,27.9-56.2,55.3-58.2,57.2c-2.8,2.8-2.8,7.4,0,10.2s7.3,2.9,10.2,0.1
				c0.5-0.5,27-26.3,57.2-56.2c22.3-21.5,45.6-43.4,58.9-54.2c6-4.9,12.6-7,18.4-6c5.2,0.9,9.6,4.1,12.8,9.3
				c2.5,4.2,4.1,8.3,4.7,12.6c1.3,9.3-3.4,23.4-10.9,32.8C997.9,607.8,705,880.2,702.1,883c-0.1,0-0.1,0.1-0.2,0.2
				c-3,3-6.9,4.6-11,4.6l0,0c-4.2,0-8-1.6-11-4.6c-51.4-51.6-176.2-176.7-224.7-224.7c-20.7-20.4-32-47.5-32-76.2
				C423.1,523.3,470.9,475.4,529.8,475.4z"/>
			<path class="st1" d="M1105.6,469.9c-0.9-6.4-3.1-12.3-6.7-18.2c-5.3-8.7-13.4-14.4-22.7-16c-1.8-0.3-3.7-0.4-5.5-0.4
				c1.7-1.8,3.3-3.5,4.7-5c12.6-13.7,16.7-23.9,16.2-40.8c-0.2-7.9-1-12.3-5-18.7c-5.3-8.5-15.1-15-25.5-17.2
				c-3.9-0.8-7.8-1-11.5-0.6c35.5-37.8,24-65.1,13.8-78.1c-9.5-12.1-20.8-18.6-33.4-19.2c-20.8-1-36.4,14.3-39.3,17.4
				C932.7,334.1,779.4,484,714,548c-10.7,10.4-18.8,18.4-23.7,23.1c-14.6-14.4-56.4-55.6-71.8-71.5C594.4,474.7,563,461,529.8,461
				c-66.8,0-121.2,54.4-121.2,121.2c0,32.6,12.9,63.3,36.4,86.5c48.5,47.9,173.3,173.1,224.7,224.6c5.7,5.7,13.2,8.8,21.2,8.8l0,0
				c7.9,0,15.5-3.1,21.1-8.7c6.6-6.1,297.1-276.5,379.6-379.7c8.8-11,14.3-26.2,14.3-38.7C1105.9,473.3,1105.8,471.6,1105.6,469.9z
				 M701.9,883.1c-3,3-6.9,4.6-11,4.6l0,0c-4.2,0-8-1.6-11-4.6c-51.4-51.6-176.2-176.7-224.7-224.7c-20.7-20.4-32-47.5-32-76.2
				c0-58.9,47.9-106.8,106.7-106.8c29.2,0,57,12.1,78.3,34.2c17,17.6,65.9,65.8,75.5,75.3c3.7,3.6,9.7,3.6,13.4,0
				c3.6-3.6,13.3-13,27.1-26.5c65.5-64,218.9-214,277-275.2c6-6.3,17-13.4,28.2-12.9c8.2,0.4,15.8,5,22.6,13.7
				c13.3,16.9,7.8,38.4-15.8,62.2c-23.5,23.7-72.5,74.3-101,103.8c-12.3,12.6-20.8,21.5-21.9,22.7c-2.7,2.9-2.6,7.4,0.3,10.2
				c2.9,2.7,7.5,2.6,10.2-0.2c0.3-0.3,7.9-8.1,19.3-20c26.8-27.5,74.6-75.3,97.5-91.1c5.4-3.7,11.4-5,17.6-3.7
				c6.6,1.4,12.9,5.6,16.2,10.7c2.1,3.3,2.6,4.7,2.8,11.4c0.4,12.8-2.4,19.7-12.3,30.5c-15.7,17-48.1,49.5-77.4,78.4
				c-29,27.9-56.2,55.3-58.2,57.2c-2.8,2.8-2.8,7.4,0,10.2s7.3,2.9,10.2,0.1c0.5-0.5,27-26.3,57.2-56.2
				c22.3-21.5,45.6-43.4,58.9-54.2c6-4.9,12.6-7,18.4-6c5.2,0.9,9.6,4.1,12.8,9.3c2.5,4.2,4.1,8.3,4.7,12.6
				c1.3,9.3-3.4,23.4-10.9,32.8C997.9,607.8,705,880.2,702.1,883C702,883,701.9,883.1,701.9,883.1z"/>
			<path class="st2" d="M1080.3,504.7C997.9,607.8,705,880.2,702.1,883c-0.1,0-0.1,0.1-0.2,0.2c-3,3-6.9,4.6-11,4.6l0,0
				c-4.2,0-8-1.6-11-4.6c-51.4-51.6-176.2-176.7-224.7-224.7c-20.7-20.4-32-47.5-32-76.2c0-58.9,47.9-106.8,106.7-106.8
				c29.2,0,57,12.1,78.3,34.2c17,17.6,65.9,65.8,75.5,75.3c3.7,3.6,9.7,3.6,13.4,0c3.6-3.6,13.3-13,27.1-26.5
				c65.5-64,218.9-214,277-275.2c6-6.3,17-13.4,28.2-12.9c8.2,0.4,15.8,5,22.6,13.7c13.3,16.9,7.8,38.4-15.8,62.2
				c-23.5,23.7-72.5,74.3-101,103.8c-12.3,12.6-20.8,21.5-21.9,22.7c-2.7,2.9-2.6,7.4,0.3,10.2c2.9,2.7,7.5,2.6,10.2-0.2
				c0.3-0.3,7.9-8.1,19.3-20c26.8-27.5,74.6-75.3,97.5-91.1c5.4-3.7,11.4-5,17.6-3.7c6.6,1.4,12.9,5.6,16.2,10.7
				c2.1,3.3,2.6,4.7,2.8,11.4c0.4,12.8-2.4,19.7-12.3,30.5c-15.7,17-48.1,49.5-77.4,78.4c-29,27.9-56.2,55.3-58.2,57.2
				c-2.8,2.8-2.8,7.4,0,10.2s7.3,2.9,10.2,0.1c0.5-0.5,27-26.3,57.2-56.2c22.3-21.5,45.6-43.4,58.9-54.2c6-4.9,12.6-7,18.4-6
				c5.2,0.9,9.6,4.1,12.8,9.3c2.5,4.2,4.1,8.3,4.7,12.6C1092.5,481.2,1087.8,495.3,1080.3,504.7z"/>
		</g>
		<path class="st1" d="M493.5,570l-10.2-12c12.7-10.8,28.8-16.7,45.4-16.7c3.1,0,6.2,0.2,9.2,0.6l-2.1,15.7
			c-2.3-0.3-4.7-0.5-7.1-0.5C515.8,557,503.3,561.6,493.5,570z"/>
		<g>
			<circle class="st3" cx="447.4" cy="593.5" r="62.2"/>
			<path class="st1" d="M447.4,663.7c-38.7,0-70.1-31.5-70.1-70.1c0-38.7,31.5-70.1,70.1-70.1c38.7,0,70.1,31.5,70.1,70.1
				S486,663.7,447.4,663.7z M447.4,539.2c-30,0-54.3,24.4-54.3,54.3c0,30,24.4,54.3,54.3,54.3c30,0,54.3-24.4,54.3-54.3
				C501.7,563.6,477.3,539.2,447.4,539.2z"/>
		</g>
		<g>
			<path class="st3" d="M648.7,535.8c0,34.4-27.9,62.2-62.2,62.2c-10.8,0-20.9-2.8-29.8-7.6c-10.9-5.9-19.8-15-25.5-26.1
				c-4.4-8.6-6.9-18.3-6.9-28.6c0-34.4,27.9-62.2,62.2-62.2C620.9,473.6,648.7,501.5,648.7,535.8z"/>
			<path class="st1" d="M586.5,606c-11.7,0-23.3-3-33.6-8.5c-12.3-6.7-22.3-16.9-28.7-29.4c-5.2-10-7.8-20.9-7.8-32.2
				c0-38.7,31.5-70.1,70.1-70.1c38.7,0,70.1,31.5,70.1,70.1S625.2,606,586.5,606z M586.5,481.5c-30,0-54.3,24.4-54.3,54.3
				c0,8.8,2,17.2,6,24.9c5,9.7,12.7,17.5,22.3,22.8c7.9,4.3,16.9,6.6,26,6.6c30,0,54.3-24.4,54.3-54.3
				C640.8,505.9,616.4,481.5,586.5,481.5z"/>
		</g>
		<path class="st1" d="M574,653.5c2.5,1.1,1.9,4.2-0.6,5.3c-20.2,8.8-56.7,8.2-77.4-11.9c-2.6-2.5-12.2-11.8-14.2-26.6
			c-1.5-11,1.9-21.1,3.6-25.3c1.6-3.8,10.4-21.6,30.3-28.1c7.4-2.4,15-2.7,22.3-1.6c6.5,12.5,21.5,26.1,33.9,32.9
			c-6.2,2.9-17.9,9.1-18.7,25.4c-0.7,14,9,24.3,20.6,29.9C573.9,653.4,574,653.4,574,653.5z"/>
		<circle class="st1" cx="447.4" cy="593.5" r="18.7"/>
		<circle class="st1" cx="586.5" cy="535.8" r="18.7"/>
		<path class="st1" d="M514.4,410.3c-2.7-0.2-3.2-3.3-1.2-5.2c16.1-15,50.7-26.6,77-14.5c3.3,1.5,15.4,7.1,22.2,20.4
			c5.1,9.9,5.2,20.5,5,25.1c-0.2,4.1-2.6,23.8-19.2,36.6c-6.2,4.7-13.2,7.5-20.5,8.9c-10.3-9.6-29-17.5-42.9-19.8
			c4.9-4.8,13.9-14.5,9.2-30.2c-4-13.4-16.6-19.9-29.4-21.3C514.5,410.3,514.4,410.4,514.4,410.3z"/>
		<path class="st1" d="M421.9,438.1c-7.9,10.2-12.1,23.7-5.3,35.9c7.9,14.3,21.2,14.7,28,14.5c-8.1,11.6-15.6,30.4-15.9,44.5
			c-6.1,4.2-13,7.3-20.7,8.4c-20.7,3-36.5-9.1-39.6-11.8c-3.4-3-10.9-10.6-14.4-21.1c-4.8-14.2-0.3-26.7,1-30.1
			c9.7-27.2,42.1-43.9,64.2-44.9c2.7-0.1,4.6,2.4,2.9,4.5C422.1,438.1,422,438.1,421.9,438.1z"/>
	</g>
</g>
</svg>
